<?xml version="1.0" standalone="no"?>
<!DOCTYPE svg PUBLIC "-//W3C//DTD SVG 20010904//EN"
 "http://www.w3.org/TR/2001/REC-SVG-20010904/DTD/svg10.dtd">
<svg version="1.0" xmlns="http://www.w3.org/2000/svg"
 width="240.000000pt" height="320.000000pt" viewBox="0 0 240.000000 320.000000"
 preserveAspectRatio="xMidYMid meet">

<g transform="translate(0.000000,320.000000) scale(0.100000,-0.100000)"
fill="#000000" stroke="none">
<path d="M285 3023 c-55 -115 -56 -150 -4 -197 28 -24 38 -28 76 -23 51 5 87
34 105 84 7 18 17 32 23 29 463 -184 902 -361 908 -366 5 -4 -131 -105 -302
-224 -171 -120 -321 -230 -335 -247 -50 -59 -47 -81 44 -305 l83 -205 -21 -67
c-11 -37 -41 -131 -66 -209 -134 -415 -137 -428 -131 -460 8 -46 56 -83 107
-83 71 0 80 18 218 404 108 304 125 346 137 330 10 -14 13 -86 13 -318 0 -170
4 -317 10 -337 26 -93 143 -111 197 -30 23 34 23 37 23 355 l0 322 -125 309
-126 310 22 18 c78 63 471 349 475 345 7 -8 -245 -552 -261 -564 -21 -15 -19
-39 7 -90 36 -72 138 -139 250 -164 81 -18 238 -8 311 20 71 27 133 73 168
125 31 46 46 105 26 105 -7 0 -79 138 -160 308 -119 248 -154 313 -182 335
-21 17 -302 134 -727 303 -381 152 -698 278 -705 281 -7 3 -30 -35 -58 -94z
m1576 -858 c65 -142 119 -262 119 -267 0 -4 -29 -8 -65 -8 l-65 0 0 51 c0 66
-13 89 -50 89 -57 0 -46 46 13 52 27 2 32 7 32 28 0 25 0 25 -106 28 -82 2
-109 -1 -118 -11 -19 -24 -2 -46 37 -49 29 -2 37 -7 37 -23 0 -14 -8 -21 -27
-23 -37 -4 -46 -19 -50 -82 l-3 -55 -68 -3 c-39 -2 -67 1 -65 6 29 78 245 531
251 529 5 -1 63 -119 128 -262z"/>
<path d="M555 2621 c-164 -42 -249 -218 -175 -361 80 -153 273 -192 395 -79
61 56 85 110 85 190 0 77 -22 129 -76 181 -61 58 -158 87 -229 69z"/>
<path d="M632 611 c-20 -12 -10 -45 14 -49 29 -4 51 23 34 43 -14 17 -29 19
-48 6z"/>
<path d="M157 589 c-26 -15 -38 -54 -27 -84 5 -13 27 -33 50 -45 67 -34 39
-68 -34 -40 -24 9 -26 7 -26 -19 0 -34 14 -41 76 -41 34 0 51 6 69 25 14 13
25 32 25 42 0 29 -29 64 -66 79 -50 21 -45 46 9 42 36 -3 42 0 45 18 2 15 -4
23 -20 28 -35 9 -81 7 -101 -5z"/>
<path d="M1140 593 c0 -5 12 -59 27 -120 l27 -113 37 0 c41 0 38 -4 60 90 l13
55 16 -70 15 -70 40 0 39 0 28 110 c15 61 28 113 28 118 0 12 -58 8 -62 -5 -3
-7 -11 -43 -18 -80 -8 -37 -16 -65 -19 -62 -3 3 -13 38 -21 77 -15 70 -16 72
-45 72 -29 0 -30 -2 -50 -85 l-21 -85 -18 88 c-18 85 -19 87 -47 87 -16 0 -29
-3 -29 -7z"/>
<path d="M808 536 c-16 -8 -28 -11 -28 -5 0 5 -11 9 -25 9 -25 0 -25 -1 -25
-90 l0 -90 30 0 c30 0 30 1 30 53 0 61 20 100 41 80 7 -7 15 -40 17 -73 4 -58
5 -60 33 -60 l29 0 0 70 c0 62 -3 74 -25 95 -28 29 -40 30 -77 11z"/>
<path d="M980 538 c-28 -15 -40 -69 -19 -94 9 -11 9 -17 -1 -29 -9 -11 -10
-19 -3 -26 8 -8 5 -17 -8 -30 -23 -23 -23 -29 -5 -55 12 -15 27 -19 74 -19 69
0 102 21 102 65 0 37 -17 50 -66 50 -24 0 -46 5 -49 10 -4 6 6 10 22 10 42 0
73 26 73 61 0 16 5 29 10 29 6 0 10 7 10 15 0 9 -9 15 -22 15 -13 0 -39 3 -58
5 -20 3 -46 0 -60 -7z m63 -40 c6 -19 -3 -38 -19 -38 -8 0 -14 10 -14 25 0 26
25 35 33 13z m27 -157 c0 -11 -25 -21 -56 -21 -15 0 -24 6 -24 15 0 11 11 15
40 15 22 0 40 -4 40 -9z"/>
<path d="M1634 536 c-36 -16 -44 -32 -44 -90 0 -56 30 -86 86 -86 42 0 64 14
64 40 0 13 -9 17 -42 16 -40 -1 -43 1 -46 27 -5 39 15 59 48 52 23 -5 28 -2
33 17 7 27 10 25 -33 32 -21 4 -48 0 -66 -8z"/>
<path d="M1814 536 c-55 -24 -66 -104 -21 -153 24 -26 90 -31 120 -9 52 40 41
137 -19 162 -40 17 -41 17 -80 0z m64 -80 c4 -42 -13 -63 -35 -44 -14 11 -18
70 -6 82 18 18 38 -1 41 -38z"/>
<path d="M2063 535 c-14 -10 -24 -12 -28 -5 -3 5 -17 10 -31 10 -24 0 -24 -1
-24 -90 l0 -90 35 0 35 0 0 64 c0 47 4 65 15 70 21 8 35 -25 35 -83 0 -50 1
-51 30 -51 30 0 30 0 30 59 0 41 5 62 16 72 23 19 34 -4 34 -73 0 -58 0 -58
30 -58 l31 0 -3 82 c-3 78 -4 83 -31 98 -24 13 -30 13 -55 0 -22 -13 -31 -14
-52 -3 -32 16 -41 16 -67 -2z"/>
<path d="M310 529 c0 -7 10 -47 22 -90 21 -78 21 -79 54 -79 28 0 35 4 40 28
22 98 23 98 44 15 10 -40 13 -43 44 -43 33 0 33 0 55 83 12 45 21 85 21 90 0
4 -13 7 -29 7 -28 0 -30 -3 -37 -45 -3 -25 -10 -45 -14 -45 -4 0 -11 20 -14
45 -7 44 -8 45 -46 45 -38 0 -39 -1 -46 -45 -9 -62 -20 -64 -28 -5 -6 47 -8
50 -36 50 -17 0 -30 -5 -30 -11z"/>
<path d="M620 450 l0 -90 35 0 35 0 0 90 0 90 -35 0 -35 0 0 -90z"/>
<path d="M1502 411 c-23 -14 -10 -46 19 -49 30 -4 46 22 28 44 -13 16 -28 17
-47 5z"/>
</g>
</svg>
